<mxfile host="Electron" agent="Mozilla/5.0 (Macintosh; Intel Mac OS X 10_15_7) AppleWebKit/537.36 (KHTML, like Gecko) draw.io/27.0.2 Chrome/134.0.6998.205 Electron/35.3.0 Safari/537.36" version="27.0.2">
  <diagram name="Page-1" id="VGkpT9Ujquth5MluXpyo">
    <mxGraphModel dx="1186" dy="882" grid="0" gridSize="10" guides="1" tooltips="1" connect="1" arrows="1" fold="1" page="1" pageScale="1" pageWidth="850" pageHeight="1100" math="0" shadow="0">
      <root>
        <mxCell id="0" />
        <mxCell id="1" parent="0" />
        <mxCell id="-Rrpo6K_Rs95oG0EcNV3-1" value="reserve" style="shape=umlFrame;whiteSpace=wrap;html=1;pointerEvents=0;sketch=1;curveFitting=1;jiggle=2;labelBackgroundColor=none;fillColor=#FAE5C7;strokeColor=#0F8B8D;fontColor=#143642;" parent="1" vertex="1">
          <mxGeometry x="167" y="85" width="635" height="757" as="geometry" />
        </mxCell>
        <mxCell id="-Rrpo6K_Rs95oG0EcNV3-9" style="rounded=0;orthogonalLoop=1;jettySize=auto;html=1;exitX=1;exitY=0.3333333333333333;exitDx=0;exitDy=0;exitPerimeter=0;entryX=0;entryY=0.5;entryDx=0;entryDy=0;endArrow=none;startFill=0;sketch=1;curveFitting=1;jiggle=2;labelBackgroundColor=none;strokeColor=#A8201A;fontColor=default;" parent="1" source="-Rrpo6K_Rs95oG0EcNV3-2" target="-Rrpo6K_Rs95oG0EcNV3-4" edge="1">
          <mxGeometry relative="1" as="geometry" />
        </mxCell>
        <mxCell id="-Rrpo6K_Rs95oG0EcNV3-13" style="edgeStyle=none;shape=connector;rounded=0;orthogonalLoop=1;jettySize=auto;html=1;exitX=1;exitY=0.3333333333333333;exitDx=0;exitDy=0;exitPerimeter=0;entryX=0;entryY=0.5;entryDx=0;entryDy=0;strokeColor=#A8201A;align=center;verticalAlign=middle;fontFamily=Helvetica;fontSize=11;fontColor=default;labelBackgroundColor=none;startFill=0;endArrow=none;sketch=1;curveFitting=1;jiggle=2;" parent="1" source="-Rrpo6K_Rs95oG0EcNV3-2" target="-Rrpo6K_Rs95oG0EcNV3-12" edge="1">
          <mxGeometry relative="1" as="geometry" />
        </mxCell>
        <mxCell id="CKfVg26gr-RyZYyaiJxE-10" style="edgeStyle=none;shape=connector;rounded=0;orthogonalLoop=1;jettySize=auto;html=1;exitX=1;exitY=0.3333333333333333;exitDx=0;exitDy=0;exitPerimeter=0;entryX=0;entryY=0.5;entryDx=0;entryDy=0;strokeColor=#A8201A;align=center;verticalAlign=middle;fontFamily=Helvetica;fontSize=11;fontColor=default;labelBackgroundColor=none;startFill=0;endArrow=none;sketch=1;curveFitting=1;jiggle=2;" parent="1" source="-Rrpo6K_Rs95oG0EcNV3-2" target="CKfVg26gr-RyZYyaiJxE-9" edge="1">
          <mxGeometry relative="1" as="geometry" />
        </mxCell>
        <mxCell id="CKfVg26gr-RyZYyaiJxE-11" style="edgeStyle=none;shape=connector;rounded=0;orthogonalLoop=1;jettySize=auto;html=1;exitX=1;exitY=0.3333333333333333;exitDx=0;exitDy=0;exitPerimeter=0;entryX=0;entryY=0.5;entryDx=0;entryDy=0;strokeColor=#A8201A;align=center;verticalAlign=middle;fontFamily=Helvetica;fontSize=11;fontColor=default;labelBackgroundColor=none;startFill=0;endArrow=none;sketch=1;curveFitting=1;jiggle=2;" parent="1" source="-Rrpo6K_Rs95oG0EcNV3-2" target="CKfVg26gr-RyZYyaiJxE-8" edge="1">
          <mxGeometry relative="1" as="geometry" />
        </mxCell>
        <mxCell id="CKfVg26gr-RyZYyaiJxE-13" style="edgeStyle=none;shape=connector;rounded=0;orthogonalLoop=1;jettySize=auto;html=1;exitX=1;exitY=0.3333333333333333;exitDx=0;exitDy=0;exitPerimeter=0;entryX=0;entryY=0.5;entryDx=0;entryDy=0;strokeColor=#A8201A;align=center;verticalAlign=middle;fontFamily=Helvetica;fontSize=11;fontColor=default;labelBackgroundColor=none;startFill=0;endArrow=none;sketch=1;curveFitting=1;jiggle=2;" parent="1" source="-Rrpo6K_Rs95oG0EcNV3-2" target="CKfVg26gr-RyZYyaiJxE-12" edge="1">
          <mxGeometry relative="1" as="geometry" />
        </mxCell>
        <mxCell id="-Rrpo6K_Rs95oG0EcNV3-2" value="patient" style="shape=umlActor;verticalLabelPosition=bottom;verticalAlign=top;html=1;sketch=1;curveFitting=1;jiggle=2;labelBackgroundColor=none;fillColor=#FAE5C7;strokeColor=#0F8B8D;fontColor=#143642;" parent="1" vertex="1">
          <mxGeometry x="49" y="242" width="30" height="60" as="geometry" />
        </mxCell>
        <mxCell id="-Rrpo6K_Rs95oG0EcNV3-11" style="edgeStyle=none;shape=connector;rounded=0;orthogonalLoop=1;jettySize=auto;html=1;exitX=1;exitY=0.3333333333333333;exitDx=0;exitDy=0;exitPerimeter=0;entryX=0;entryY=0.5;entryDx=0;entryDy=0;strokeColor=#A8201A;align=center;verticalAlign=middle;fontFamily=Helvetica;fontSize=11;fontColor=default;labelBackgroundColor=none;startFill=0;endArrow=none;sketch=1;curveFitting=1;jiggle=2;" parent="1" source="-Rrpo6K_Rs95oG0EcNV3-3" target="-Rrpo6K_Rs95oG0EcNV3-10" edge="1">
          <mxGeometry relative="1" as="geometry">
            <mxPoint x="105" y="579" as="sourcePoint" />
          </mxGeometry>
        </mxCell>
        <mxCell id="CKfVg26gr-RyZYyaiJxE-6" style="rounded=0;orthogonalLoop=1;jettySize=auto;html=1;exitX=1;exitY=0.3333333333333333;exitDx=0;exitDy=0;exitPerimeter=0;entryX=0;entryY=0.5;entryDx=0;entryDy=0;endArrow=none;startFill=0;sketch=1;curveFitting=1;jiggle=2;labelBackgroundColor=none;strokeColor=#A8201A;fontColor=default;" parent="1" source="-Rrpo6K_Rs95oG0EcNV3-3" target="CKfVg26gr-RyZYyaiJxE-2" edge="1">
          <mxGeometry relative="1" as="geometry">
            <mxPoint x="105" y="579" as="sourcePoint" />
          </mxGeometry>
        </mxCell>
        <mxCell id="CKfVg26gr-RyZYyaiJxE-7" style="edgeStyle=none;shape=connector;rounded=0;orthogonalLoop=1;jettySize=auto;html=1;exitX=1;exitY=0.3333333333333333;exitDx=0;exitDy=0;exitPerimeter=0;entryX=0;entryY=0.5;entryDx=0;entryDy=0;strokeColor=#A8201A;align=center;verticalAlign=middle;fontFamily=Helvetica;fontSize=11;fontColor=default;labelBackgroundColor=none;startFill=0;endArrow=none;sketch=1;curveFitting=1;jiggle=2;" parent="1" source="-Rrpo6K_Rs95oG0EcNV3-3" target="CKfVg26gr-RyZYyaiJxE-1" edge="1">
          <mxGeometry relative="1" as="geometry">
            <mxPoint x="105" y="579" as="sourcePoint" />
          </mxGeometry>
        </mxCell>
        <mxCell id="-Rrpo6K_Rs95oG0EcNV3-3" value="doctor" style="shape=umlActor;verticalLabelPosition=bottom;verticalAlign=top;html=1;sketch=1;curveFitting=1;jiggle=2;labelBackgroundColor=none;fillColor=#FAE5C7;strokeColor=#0F8B8D;fontColor=#143642;" parent="1" vertex="1">
          <mxGeometry x="49" y="674" width="30" height="60" as="geometry" />
        </mxCell>
        <mxCell id="-Rrpo6K_Rs95oG0EcNV3-4" value="show all expertise" style="ellipse;whiteSpace=wrap;html=1;sketch=1;curveFitting=1;jiggle=2;labelBackgroundColor=none;fillColor=#FAE5C7;strokeColor=#0F8B8D;fontColor=#143642;" parent="1" vertex="1">
          <mxGeometry x="213" y="404" width="140" height="70" as="geometry" />
        </mxCell>
        <mxCell id="-Rrpo6K_Rs95oG0EcNV3-5" value="show all doctor on expertise" style="ellipse;whiteSpace=wrap;html=1;sketch=1;curveFitting=1;jiggle=2;labelBackgroundColor=none;fillColor=#FAE5C7;strokeColor=#0F8B8D;fontColor=#143642;" parent="1" vertex="1">
          <mxGeometry x="422" y="336" width="140" height="70" as="geometry" />
        </mxCell>
        <mxCell id="-Rrpo6K_Rs95oG0EcNV3-6" value="reservation" style="ellipse;whiteSpace=wrap;html=1;sketch=1;curveFitting=1;jiggle=2;labelBackgroundColor=none;fillColor=#FAE5C7;strokeColor=#0F8B8D;fontColor=#143642;" parent="1" vertex="1">
          <mxGeometry x="578" y="429" width="140" height="70" as="geometry" />
        </mxCell>
        <mxCell id="-Rrpo6K_Rs95oG0EcNV3-7" value="Extends" style="endArrow=block;endSize=16;endFill=0;html=1;rounded=0;exitX=0;exitY=0.5;exitDx=0;exitDy=0;entryX=1;entryY=0.5;entryDx=0;entryDy=0;sketch=1;curveFitting=1;jiggle=2;labelBackgroundColor=none;strokeColor=#A8201A;fontColor=default;" parent="1" source="-Rrpo6K_Rs95oG0EcNV3-5" target="-Rrpo6K_Rs95oG0EcNV3-4" edge="1">
          <mxGeometry width="160" relative="1" as="geometry">
            <mxPoint x="344" y="640" as="sourcePoint" />
            <mxPoint x="504" y="640" as="targetPoint" />
          </mxGeometry>
        </mxCell>
        <mxCell id="-Rrpo6K_Rs95oG0EcNV3-8" value="Extends" style="endArrow=block;endSize=16;endFill=0;html=1;rounded=0;exitX=0;exitY=0.5;exitDx=0;exitDy=0;entryX=1;entryY=0.5;entryDx=0;entryDy=0;sketch=1;curveFitting=1;jiggle=2;labelBackgroundColor=none;strokeColor=#A8201A;fontColor=default;" parent="1" source="-Rrpo6K_Rs95oG0EcNV3-6" target="-Rrpo6K_Rs95oG0EcNV3-5" edge="1">
          <mxGeometry width="160" relative="1" as="geometry">
            <mxPoint x="412" y="474" as="sourcePoint" />
            <mxPoint x="343" y="542" as="targetPoint" />
          </mxGeometry>
        </mxCell>
        <mxCell id="-Rrpo6K_Rs95oG0EcNV3-10" value="show all reserve" style="ellipse;whiteSpace=wrap;html=1;fontFamily=Helvetica;fontSize=11;fontColor=#143642;labelBackgroundColor=none;sketch=1;curveFitting=1;jiggle=2;fillColor=#FAE5C7;strokeColor=#0F8B8D;" parent="1" vertex="1">
          <mxGeometry x="213" y="767" width="140" height="70" as="geometry" />
        </mxCell>
        <mxCell id="-Rrpo6K_Rs95oG0EcNV3-12" value="search by&amp;nbsp;&lt;span style=&quot;font-size: 12px; background-color: rgb(236, 236, 236);&quot;&gt;expertise or doctor&lt;/span&gt;" style="ellipse;whiteSpace=wrap;html=1;fontFamily=Helvetica;fontSize=11;fontColor=#143642;labelBackgroundColor=none;sketch=1;curveFitting=1;jiggle=2;fillColor=#FAE5C7;strokeColor=#0F8B8D;" parent="1" vertex="1">
          <mxGeometry x="213" y="495" width="140" height="70" as="geometry" />
        </mxCell>
        <mxCell id="-Rrpo6K_Rs95oG0EcNV3-14" value="Extends" style="endArrow=block;endSize=16;endFill=0;html=1;rounded=0;exitX=0;exitY=0.5;exitDx=0;exitDy=0;entryX=1;entryY=0.5;entryDx=0;entryDy=0;sketch=1;curveFitting=1;jiggle=2;labelBackgroundColor=none;strokeColor=#A8201A;fontColor=default;" parent="1" source="-Rrpo6K_Rs95oG0EcNV3-6" target="-Rrpo6K_Rs95oG0EcNV3-12" edge="1">
          <mxGeometry width="160" relative="1" as="geometry">
            <mxPoint x="588" y="474" as="sourcePoint" />
            <mxPoint x="572" y="381" as="targetPoint" />
          </mxGeometry>
        </mxCell>
        <mxCell id="CKfVg26gr-RyZYyaiJxE-1" value="cancel reserve" style="ellipse;whiteSpace=wrap;html=1;fontFamily=Helvetica;fontSize=11;fontColor=#143642;labelBackgroundColor=none;sketch=1;curveFitting=1;jiggle=2;fillColor=#FAE5C7;strokeColor=#0F8B8D;" parent="1" vertex="1">
          <mxGeometry x="213" y="674" width="140" height="70" as="geometry" />
        </mxCell>
        <mxCell id="CKfVg26gr-RyZYyaiJxE-2" value="change reserve time" style="ellipse;whiteSpace=wrap;html=1;fontFamily=Helvetica;fontSize=11;fontColor=#143642;labelBackgroundColor=none;sketch=1;curveFitting=1;jiggle=2;fillColor=#FAE5C7;strokeColor=#0F8B8D;" parent="1" vertex="1">
          <mxGeometry x="215" y="585" width="140" height="70" as="geometry" />
        </mxCell>
        <mxCell id="CKfVg26gr-RyZYyaiJxE-3" value="send notification" style="ellipse;whiteSpace=wrap;html=1;fontFamily=Helvetica;fontSize=11;fontColor=#143642;labelBackgroundColor=none;sketch=1;curveFitting=1;jiggle=2;fillColor=#FAE5C7;strokeColor=#0F8B8D;" parent="1" vertex="1">
          <mxGeometry x="430" y="629" width="140" height="70" as="geometry" />
        </mxCell>
        <mxCell id="CKfVg26gr-RyZYyaiJxE-4" value="Include" style="endArrow=block;endSize=16;endFill=0;html=1;rounded=0;exitX=1;exitY=0.5;exitDx=0;exitDy=0;entryX=0;entryY=0.5;entryDx=0;entryDy=0;sketch=1;curveFitting=1;jiggle=2;labelBackgroundColor=none;strokeColor=#A8201A;fontColor=default;" parent="1" source="CKfVg26gr-RyZYyaiJxE-1" target="CKfVg26gr-RyZYyaiJxE-3" edge="1">
          <mxGeometry width="160" relative="1" as="geometry">
            <mxPoint x="620" y="551.5" as="sourcePoint" />
            <mxPoint x="395" y="617.5" as="targetPoint" />
          </mxGeometry>
        </mxCell>
        <mxCell id="CKfVg26gr-RyZYyaiJxE-5" value="Include" style="endArrow=block;endSize=16;endFill=0;html=1;rounded=0;exitX=1;exitY=0.557;exitDx=0;exitDy=0;entryX=0;entryY=0.5;entryDx=0;entryDy=0;exitPerimeter=0;sketch=1;curveFitting=1;jiggle=2;labelBackgroundColor=none;strokeColor=#A8201A;fontColor=default;" parent="1" source="CKfVg26gr-RyZYyaiJxE-2" target="CKfVg26gr-RyZYyaiJxE-3" edge="1">
          <mxGeometry width="160" relative="1" as="geometry">
            <mxPoint x="636" y="499" as="sourcePoint" />
            <mxPoint x="411" y="565" as="targetPoint" />
          </mxGeometry>
        </mxCell>
        <mxCell id="CKfVg26gr-RyZYyaiJxE-8" value="cancel reserve" style="ellipse;whiteSpace=wrap;html=1;fontFamily=Helvetica;fontSize=11;fontColor=#143642;labelBackgroundColor=none;sketch=1;curveFitting=1;jiggle=2;fillColor=#FAE5C7;strokeColor=#0F8B8D;" parent="1" vertex="1">
          <mxGeometry x="213" y="321" width="140" height="70" as="geometry" />
        </mxCell>
        <mxCell id="CKfVg26gr-RyZYyaiJxE-9" value="change reserve time" style="ellipse;whiteSpace=wrap;html=1;fontFamily=Helvetica;fontSize=11;fontColor=#143642;labelBackgroundColor=none;sketch=1;curveFitting=1;jiggle=2;fillColor=#FAE5C7;strokeColor=#0F8B8D;" parent="1" vertex="1">
          <mxGeometry x="213" y="234" width="140" height="70" as="geometry" />
        </mxCell>
        <mxCell id="CKfVg26gr-RyZYyaiJxE-12" value="show all reserve" style="ellipse;whiteSpace=wrap;html=1;fontFamily=Helvetica;fontSize=11;fontColor=#143642;labelBackgroundColor=none;sketch=1;curveFitting=1;jiggle=2;fillColor=#FAE5C7;strokeColor=#0F8B8D;" parent="1" vertex="1">
          <mxGeometry x="213" y="151" width="140" height="70" as="geometry" />
        </mxCell>
      </root>
    </mxGraphModel>
  </diagram>
</mxfile>
